<svg width="64" height="64" viewBox="0 0 64 64" fill="none" xmlns="http://www.w3.org/2000/svg">
<mask id="path-1-inside-1_51_32" fill="white">
<rect x="5" y="9" width="31" height="12" rx="2"/>
</mask>
<rect x="5" y="9" width="31" height="12" rx="2" stroke="black" stroke-width="6" mask="url(#path-1-inside-1_51_32)"/>
<mask id="path-2-inside-2_51_32" fill="white">
<path fill-rule="evenodd" clip-rule="evenodd" d="M5.41604 17C5.14845 17.6125 5 18.2889 5 19V50C5 52.7614 7.23857 55 10 55H55C57.7614 55 60 52.7614 60 50V19C60 16.2386 57.7614 14 55 14H35.9C35.9656 14.3231 36 14.6575 36 15C36 15.7111 35.8516 16.3875 35.584 17H55C56.1046 17 57 17.8954 57 19V50C57 51.1046 56.1046 52 55 52H10C8.89543 52 8 51.1046 8 50V19.584C6.84656 19.08 5.92 18.1534 5.41604 17Z"/>
</mask>
<path fill-rule="evenodd" clip-rule="evenodd" d="M5.41604 17C5.14845 17.6125 5 18.2889 5 19V50C5 52.7614 7.23857 55 10 55H55C57.7614 55 60 52.7614 60 50V19C60 16.2386 57.7614 14 55 14H35.9C35.9656 14.3231 36 14.6575 36 15C36 15.7111 35.8516 16.3875 35.584 17H55C56.1046 17 57 17.8954 57 19V50C57 51.1046 56.1046 52 55 52H10C8.89543 52 8 51.1046 8 50V19.584C6.84656 19.08 5.92 18.1534 5.41604 17Z" fill="black"/>
<path d="M5.41604 17L6.3324 16.5996L5.41604 14.5023L4.49969 16.5996L5.41604 17ZM35.9 14V13H34.6766L34.92 14.1989L35.9 14ZM35.584 17L34.6676 16.5996L34.0558 18H35.584V17ZM8 19.584H9V18.9296L8.40037 18.6676L8 19.584ZM4.49969 16.5996C4.17797 17.336 4 18.1485 4 19H6C6 18.4293 6.11893 17.889 6.3324 17.4004L4.49969 16.5996ZM4 19V50H6V19H4ZM4 50C4 53.3137 6.68629 56 10 56V54C7.79086 54 6 52.2091 6 50H4ZM10 56H55V54H10V56ZM55 56C58.3137 56 61 53.3137 61 50H59C59 52.2091 57.2091 54 55 54V56ZM61 50V19H59V50H61ZM61 19C61 15.6863 58.3137 13 55 13V15C57.2091 15 59 16.7909 59 19H61ZM55 13H35.9V15H55V13ZM34.92 14.1989C34.9723 14.4569 35 14.7247 35 15H37C37 14.5903 36.9588 14.1893 36.88 13.8011L34.92 14.1989ZM35 15C35 15.5707 34.8811 16.111 34.6676 16.5996L36.5003 17.4004C36.822 16.664 37 15.8515 37 15H35ZM35.584 18H55V16H35.584V18ZM55 18C55.5523 18 56 18.4477 56 19H58C58 17.3431 56.6569 16 55 16V18ZM56 19V50H58V19H56ZM56 50C56 50.5523 55.5523 51 55 51V53C56.6569 53 58 51.6569 58 50H56ZM55 51H10V53H55V51ZM10 51C9.44771 51 9 50.5523 9 50H7C7 51.6569 8.34315 53 10 53V51ZM9 50V19.584H7V50H9ZM8.40037 18.6676C7.47778 18.2645 6.7355 17.5222 6.3324 16.5996L4.49969 17.4004C5.10451 18.7847 6.21534 19.8955 7.59963 20.5003L8.40037 18.6676Z" fill="black" mask="url(#path-2-inside-2_51_32)"/>
<path d="M40.5 39.6178C40.5 41.1482 40.2553 42.0601 39.8902 42.6037C39.5458 43.1166 39.0495 43.366 38.3459 43.4582C37.6164 43.5538 36.7253 43.472 35.656 43.3534C35.5631 43.3431 35.469 43.3326 35.3739 43.3219C34.3958 43.2122 33.303 43.0896 32.16 43.0896C30.9906 43.0896 29.9118 43.2178 28.9722 43.3295C28.9029 43.3377 28.8344 43.3458 28.7667 43.3538C27.7569 43.473 26.9587 43.5526 26.3217 43.4593C25.7246 43.3718 25.3134 43.1395 25.0217 42.6329C24.7049 42.0827 24.5 41.1592 24.5 39.6178C24.5 36.5606 25.3017 33.2396 26.6881 30.698C28.0855 28.1364 29.9938 26.5 32.16 26.5C34.3402 26.5 36.4183 28.1538 37.984 30.7191C39.5372 33.2637 40.5 36.5784 40.5 39.6178Z" stroke="black"/>
<circle cx="32.5" cy="34.5" r="3" stroke="black"/>
<circle cx="33" cy="35" r="2" fill="black"/>
<path d="M39 37C39 38.0609 38.3679 39.0783 37.2426 39.8284C36.1174 40.5786 34.5913 41 33 41C31.4087 41 29.8826 40.5786 28.7574 39.8284C27.6321 39.0783 27 38.0609 27 37L28.3719 37C28.3719 37.8183 28.8595 38.6031 29.7275 39.1817C30.5954 39.7603 31.7726 40.0854 33 40.0854C34.2274 40.0854 35.4046 39.7603 36.2725 39.1817C37.1405 38.6031 37.6281 37.8183 37.6281 37H39Z" fill="black"/>
</svg>
