<svg width="64" height="64" viewBox="0 0 64 64" fill="none" xmlns="http://www.w3.org/2000/svg">
<mask id="path-1-inside-1_51_53" fill="white">
<rect x="5" y="9" width="31" height="12" rx="2"/>
</mask>
<rect x="5" y="9" width="31" height="12" rx="2" stroke="black" stroke-width="6" mask="url(#path-1-inside-1_51_53)"/>
<mask id="path-2-inside-2_51_53" fill="white">
<path fill-rule="evenodd" clip-rule="evenodd" d="M5.41604 17C5.14845 17.6125 5 18.2889 5 19V50C5 52.7614 7.23857 55 10 55H55C57.7614 55 60 52.7614 60 50V19C60 16.2386 57.7614 14 55 14H35.9C35.9656 14.3231 36 14.6575 36 15C36 15.7111 35.8516 16.3875 35.584 17H55C56.1046 17 57 17.8954 57 19V50C57 51.1046 56.1046 52 55 52H10C8.89543 52 8 51.1046 8 50V19.584C6.84656 19.08 5.92 18.1534 5.41604 17Z"/>
</mask>
<path fill-rule="evenodd" clip-rule="evenodd" d="M5.41604 17C5.14845 17.6125 5 18.2889 5 19V50C5 52.7614 7.23857 55 10 55H55C57.7614 55 60 52.7614 60 50V19C60 16.2386 57.7614 14 55 14H35.9C35.9656 14.3231 36 14.6575 36 15C36 15.7111 35.8516 16.3875 35.584 17H55C56.1046 17 57 17.8954 57 19V50C57 51.1046 56.1046 52 55 52H10C8.89543 52 8 51.1046 8 50V19.584C6.84656 19.08 5.92 18.1534 5.41604 17Z" fill="black"/>
<path d="M5.41604 17L6.3324 16.5996L5.41604 14.5023L4.49969 16.5996L5.41604 17ZM35.9 14V13H34.6766L34.92 14.1989L35.9 14ZM35.584 17L34.6676 16.5996L34.0558 18H35.584V17ZM8 19.584H9V18.9296L8.40037 18.6676L8 19.584ZM4.49969 16.5996C4.17797 17.336 4 18.1485 4 19H6C6 18.4293 6.11893 17.889 6.3324 17.4004L4.49969 16.5996ZM4 19V50H6V19H4ZM4 50C4 53.3137 6.68629 56 10 56V54C7.79086 54 6 52.2091 6 50H4ZM10 56H55V54H10V56ZM55 56C58.3137 56 61 53.3137 61 50H59C59 52.2091 57.2091 54 55 54V56ZM61 50V19H59V50H61ZM61 19C61 15.6863 58.3137 13 55 13V15C57.2091 15 59 16.7909 59 19H61ZM55 13H35.9V15H55V13ZM34.92 14.1989C34.9723 14.4569 35 14.7247 35 15H37C37 14.5903 36.9588 14.1893 36.88 13.8011L34.92 14.1989ZM35 15C35 15.5707 34.8811 16.111 34.6676 16.5996L36.5003 17.4004C36.822 16.664 37 15.8515 37 15H35ZM35.584 18H55V16H35.584V18ZM55 18C55.5523 18 56 18.4477 56 19H58C58 17.3431 56.6569 16 55 16V18ZM56 19V50H58V19H56ZM56 50C56 50.5523 55.5523 51 55 51V53C56.6569 53 58 51.6569 58 50H56ZM55 51H10V53H55V51ZM10 51C9.44771 51 9 50.5523 9 50H7C7 51.6569 8.34315 53 10 53V51ZM9 50V19.584H7V50H9ZM8.40037 18.6676C7.47778 18.2645 6.7355 17.5222 6.3324 16.5996L4.49969 17.4004C5.10451 18.7847 6.21534 19.8955 7.59963 20.5003L8.40037 18.6676Z" fill="black" mask="url(#path-2-inside-2_51_53)"/>
<rect x="19" y="31" width="28" height="18" stroke="black" stroke-width="2"/>
<path d="M34.5 48C34.5 46.5 36 45.3927 41.5 42C47 38.6073 31 28.1073 30 38.6073" stroke="black" stroke-width="2" stroke-dasharray="3 1"/>
<line x1="27.7071" y1="39.2929" x2="32.7071" y2="44.2929" stroke="black" stroke-width="2"/>
<line x1="27.2929" y1="44.2929" x2="32.2929" y2="39.2929" stroke="black" stroke-width="2"/>
</svg>
