<svg width="455" height="400" xmlns="http://www.w3.org/2000/svg">
 <!-- Created with Method Draw - http://github.com/duopixel/Method-Draw/ -->

 <g>
  <title>Layer 1</title>
  <g id="svg_34">
   <path fill="#ff56f3" stroke-width="1.5" d="m0.81247,399.92216l221.85983,-396.43899l221.85983,396.43899l-443.71967,0z" id="svg_33"/>
   <path fill="#56ffa2" stroke-width="1.5" d="m10.59283,397.36119l221.85983,-396.43899l221.85983,396.43899l-443.71967,0z" id="svg_23"/>
   <path fill="#77ffff" stroke-width="1.5" d="m5.44527,397.87338l221.85983,-396.43899l221.85983,396.43899l-443.71967,0z" id="svg_19"/>
   <path fill="#000000" stroke-width="1.5" d="m8.5338,397.87338l221.85983,-396.43899l221.85983,396.43899l-443.71967,0z" id="svg_31"/>
  </g>
  <ellipse fill="#000000" stroke="null" stroke-width="1.5" stroke-opacity="null" cx="331.5" cy="324.95" id="svg_22"/>
  <ellipse stroke-width="1.5" ry="41.74996" rx="63.24994" id="svg_1" cy="340.37455" cx="201.64964" fill="#ff56f3"/>
  <path id="svg_16" d="m205.14964,379.12451c-34.11599,0 -61.74994,-18.68369 -61.74994,-41.74996c0,-23.06628 27.63395,-41.74996 61.74994,-41.74996c34.11599,0 61.74994,18.68369 61.74994,41.74996c0,23.06628 -27.63395,41.74996 -61.74994,41.74996z" opacity="undefined" stroke-width="1.5" fill="#56ffa2"/>
  <g id="svg_32">
   <path fill="#77ffff" stroke-width="1.5" d="m89.00029,204.76375c-12.84178,-35.33887 64.29156,-62.21885 122.05938,1.08817c57.76781,63.30702 144.17009,52.55668 149.86617,49.4771c11.39217,-6.15916 9.25818,-116.36033 -3.89378,-120.61484c-6.57597,-2.12725 -69.97502,19.08039 -114.87859,-12.13195c-44.90357,-31.21234 -107.31166,-20.40416 -147.90571,1.83686c-81.1881,44.48204 20.43609,151.02239 -5.24747,80.34466z" id="svg_10" transform="rotate(90, 215.241, 180.576)"/>
   <path fill="#ff56f3" stroke-width="1.5" d="m88.00027,209.13869c-12.84178,-34.42565 64.29157,-60.611 122.05938,1.06006c57.76781,61.67106 144.17009,51.19853 149.86618,48.19853c11.39217,-6 9.25818,-113.35339 -3.89378,-117.49796c-6.57598,-2.07228 -69.97503,18.58732 -114.8786,-11.81844c-44.90356,-30.40576 -107.31165,-19.87688 -147.9057,1.7894c-81.1881,43.33254 20.43609,147.11972 -5.24748,78.26841z" id="svg_9" transform="rotate(90, 214.241, 185.576)"/>
   <path fill="#56ffa2" stroke-width="1.5" d="m88.31522,213.48241c-13.47095,-34.19735 67.44147,-60.20904 128.03956,1.05303c60.5981,61.26207 151.23358,50.85899 157.20873,47.87888c11.95032,-5.9602 9.71178,-112.60165 -4.08454,-116.71873c-6.89817,-2.05854 -73.40339,18.46405 -120.50697,-11.74006c-47.10358,-30.20412 -112.56929,-19.74506 -155.15221,1.77752c-85.16584,43.04518 21.43734,146.14406 -5.50457,77.74936z" id="svg_8" transform="rotate(90, 220.741, 190.076)"/>
   <path fill="#3f7f00" stroke-width="1.5" d="m91.00027,207.13869c-12.84178,-34.42565 64.29157,-60.611 122.05938,1.06006c57.76781,61.67106 144.17009,51.19853 149.86618,48.19853c11.39217,-6 9.25818,-113.35339 -3.89378,-117.49796c-6.57598,-2.07228 -69.97503,18.58732 -114.8786,-11.81844c-44.90356,-30.40576 -107.31165,-19.87688 -147.9057,1.7894c-81.1881,43.33254 20.43609,147.11972 -5.24748,78.26841z" id="svg_2" transform="rotate(90, 217.241, 183.576)"/>
   <ellipse fill="#5fbf00" stroke-width="1.5" cx="150.5" cy="275.94999" id="svg_3" rx="18" ry="25"/>
   <ellipse fill="#5fbf00" stroke-width="1.5" cx="171.5" cy="210.45" id="svg_5" rx="14" ry="19.5" transform="rotate(23.7878, 171.5, 210.45)"/>
   <ellipse fill="#5fbf00" stroke-width="1.5" cx="212" cy="157.45" id="svg_6" rx="12.5" ry="16.5" transform="rotate(32.1336, 212, 157.45)"/>
   <ellipse fill="#5fbf00" stroke-width="1.5" cx="230" cy="107.45" id="svg_7" rx="9.5" ry="12.5"/>
   <ellipse fill="#366d00" stroke-width="1.5" cx="228" cy="107.45" id="svg_11" rx="7.5" ry="9.5"/>
   <ellipse fill="#366d00" stroke-width="1.5" cx="209.69917" cy="157.13291" id="svg_12" rx="11.0128" ry="14.69789" transform="rotate(32.1336, 209.699, 157.133)"/>
   <ellipse fill="#366d00" stroke-width="1.5" cx="169.33936" cy="209.77719" id="svg_13" rx="11.05319" ry="15.69231" transform="rotate(23.7878, 169.339, 209.777)"/>
   <ellipse fill="#366d00" stroke-width="1.5" cx="148" cy="276.45" id="svg_14" rx="14.5" ry="22.5"/>
   <ellipse fill="#3f7f00" stroke-width="1.5" cx="203" cy="337.94999" id="svg_15" rx="61.5" ry="44"/>
   <ellipse fill="#366d00" stroke-width="1.5" cx="203.5" cy="335.94999" id="svg_17" rx="54" ry="38"/>
   <ellipse fill="#ffefef" stroke="null" stroke-width="1.5" stroke-opacity="null" cx="203.5" cy="337.44999" id="svg_18" rx="52" ry="27.5"/>
   <ellipse fill="#d34c4c" stroke="null" stroke-width="1.5" stroke-opacity="null" cx="204.5" cy="331.45" id="svg_20" rx="20" ry="21.5"/>
   <ellipse fill="#000000" stroke="null" stroke-width="1.5" stroke-opacity="null" cx="202.50002" cy="331.94996" id="svg_21" rx="10" ry="11"/>
   <path fill="#366d00" stroke-width="1.5" d="m199.14252,251.93083l16.99997,-14.13271l17.00002,14.13271l-6.4934,22.86729l-21.01318,0l-6.49341,-22.86729z" id="svg_24"/>
   <path fill="#366d00" stroke-width="1.5" d="m221.14251,226.29152l9.49998,-6.49341l9.50001,6.49341l-3.62866,10.50661l-11.74266,0l-3.62867,-10.50661z" id="svg_25"/>
   <path fill="#366d00" stroke-width="1.5" d="m198.14251,215.29152l9.49998,-6.49341l9.50001,6.49341l-3.62866,10.50661l-11.74266,0l-3.62867,-10.50661z" id="svg_26"/>
   <path fill="#366d00" stroke-width="1.5" d="m224.14252,202.3817l5.49999,-4.58359l5.5,4.58359l-2.1008,7.41643l-6.79838,0l-2.10082,-7.41643l0.00001,0z" id="svg_27"/>
   <path fill="#366d00" stroke-width="1.5" d="m183.14252,263.3817l5.49999,-4.58359l5.5,4.58359l-2.1008,7.41643l-6.79838,0l-2.10082,-7.41643l0.00001,0z" id="svg_28"/>
   <path fill="#366d00" stroke-width="1.5" d="m183.14252,263.3817l5.49999,-4.58359l5.5,4.58359l-2.1008,7.41643l-6.79838,0l-2.10082,-7.41643l0.00001,0z" id="svg_29"/>
   <path fill="#366d00" stroke-width="1.5" d="m235.14252,282.3817l5.49999,-4.58359l5.5,4.58359l-2.1008,7.41643l-6.79838,0l-2.10082,-7.41643l0.00001,0z" id="svg_30"/>
  </g>
 </g>
</svg>