<svg width="241" height="260" xmlns="http://www.w3.org/2000/svg">
 <g id="Layer_1">
  <title>Layer 1</title>
  <path stroke-width="10" id="svg_1" d="m105.9825,52.22236l17,-40l17,40l-34,0z" stroke="#000" fill="#fff"/>
  <path transform="rotate(-1.53107, 121.279, 89.2144)" stroke-width="10" id="svg_2" d="m105.03691,77.9195l16.24172,22.5899l16.24172,-22.5899l-32.48344,0z" stroke="#000" fill="#fff"/>
  <path transform="rotate(-179.809, 150.83, 199.83)" stroke-width="10" id="svg_3" d="m143.89504,245.15298l6.93505,-90.64602l6.93505,90.64602l-13.8701,0z" stroke="#000" fill="#fff"/>
  <path transform="rotate(-1.53107, 122.482, 131.722)" stroke-width="10" id="svg_4" d="m113.7381,145.93167l8.7444,-28.41861l8.7444,28.41861l-17.4888,0z" stroke="#000" fill="#fff"/>
  <path transform="rotate(-179.809, 95.83, 201.83)" stroke-width="10" id="svg_5" d="m88.89504,247.15298l6.93505,-90.64602l6.93505,90.64602l-13.8701,0z" stroke="#000" fill="#fff"/>
  <path transform="rotate(90.9359, 194.83, 85.83)" stroke-width="10" id="svg_6" d="m187.89504,131.15298l6.93505,-90.64602l6.93505,90.64602l-13.8701,0z" stroke="#000" fill="#fff"/>
  <path transform="rotate(-91, 47.8301, 86.83)" stroke-width="10" id="svg_7" d="m40.89504,132.15298l6.93505,-90.64602l6.93505,90.64602l-13.8701,0z" stroke="#000" fill="#fff"/>
  <path transform="rotate(-1.53107, 122.24, 64.3625)" stroke-width="10" id="svg_8" d="m117.99417,68.07552l4.24601,-7.42611l4.24601,7.42611l-8.49201,0z" stroke="#000" fill="#fff"/>
 </g>
</svg>