<svg width="64" height="64" viewBox="0 0 64 64" fill="none" xmlns="http://www.w3.org/2000/svg">
<g clip-path="url(#clip0_8_49)">
<path d="M8.75129 18.3325L32 5.14958L55.2487 18.3325V44.6675L32 57.8504L8.75129 44.6675V18.3325Z" stroke="#00509B" stroke-width="2"/>
<path d="M32.4 19.5C34.0667 19.5 35.5333 19.7833 36.8 20.35C38.1 20.8833 39.2 21.65 40.1 22.65C41 23.6167 41.7167 24.7833 42.25 26.15L38.85 27.8C38.3833 26.1333 37.6 24.8667 36.5 24C35.4 23.1 34 22.65 32.3 22.65C30.7 22.65 29.3 23.05 28.1 23.85C26.9333 24.6167 26.0333 25.7333 25.4 27.2C24.7667 28.6667 24.45 30.4333 24.45 32.5C24.45 34.5333 24.7667 36.3 25.4 37.8C26.0667 39.2667 26.9833 40.4 28.15 41.2C29.35 41.9667 30.75 42.35 32.35 42.35C33.6167 42.35 34.7167 42.15 35.65 41.75C36.5833 41.3167 37.35 40.7 37.95 39.9C38.55 39.1 38.9667 38.1333 39.2 37L42.5 38.15C42 39.6833 41.2833 41 40.35 42.1C39.4167 43.2 38.2667 44.05 36.9 44.65C35.5667 45.2167 34.05 45.5 32.35 45.5C30.1167 45.5 28.1333 44.9833 26.4 43.95C24.6667 42.9167 23.3 41.4333 22.3 39.5C21.3333 37.5333 20.85 35.2 20.85 32.5C20.85 29.8 21.35 27.4833 22.35 25.55C23.35 23.5833 24.7167 22.0833 26.45 21.05C28.1833 20.0167 30.1667 19.5 32.4 19.5Z" fill="#00509B"/>
</g>
<defs>
<clipPath id="clip0_8_49">
<rect width="64" height="64" fill="white"/>
</clipPath>
</defs>
</svg>
