<svg width="64" height="64" viewBox="0 0 64 64" fill="none" xmlns="http://www.w3.org/2000/svg">
<path d="M8.75129 18.3325L32 5.14958L55.2487 18.3325V44.6675L32 57.8504L8.75129 44.6675V18.3325Z" stroke="#582F92" stroke-width="2"/>
<path d="M25.68 45V15.8H28.56V28.28C29.2 27.0267 30.08 26.1067 31.2 25.52C32.3467 24.9067 33.6133 24.6 35 24.6C36.36 24.6 37.5867 24.88 38.68 25.44C39.8 25.9733 40.6933 26.8 41.36 27.92C42.0267 29.04 42.36 30.4533 42.36 32.16V45H39.48V33.12C39.48 30.9067 39.0133 29.36 38.08 28.48C37.1467 27.5733 35.9867 27.12 34.6 27.12C33.64 27.12 32.6933 27.36 31.76 27.84C30.8267 28.32 30.0533 29.08 29.44 30.12C28.8533 31.16 28.56 32.52 28.56 34.2V45H25.68Z" fill="#582F92"/>
</svg>
