<svg width="64" height="64" viewBox="0 0 64 64" fill="none" xmlns="http://www.w3.org/2000/svg">
<mask id="path-1-inside-1_6_44" fill="white">
<path fill-rule="evenodd" clip-rule="evenodd" d="M9 6C6.23858 6 4 8.23858 4 11V53C4 55.7614 6.23857 58 9 58H54C56.7614 58 59 55.7614 59 53V11C59 8.23858 56.7614 6 54 6H9ZM28.7614 27.7273H23.2159V43.8182C23.2083 44.4924 23.1061 45.0568 22.9091 45.5114C22.7197 45.9659 22.4394 46.3106 22.0682 46.5455C21.697 46.7727 21.2424 46.8864 20.7045 46.8864C20.1894 46.8864 19.7462 46.7803 19.375 46.5682C19.0038 46.3561 18.7121 46.0417 18.5 45.625C18.2955 45.2008 18.1818 44.6894 18.1591 44.0909H12.5568C12.5492 45.7576 12.8939 47.125 13.5909 48.1932C14.2955 49.2614 15.2386 50.0492 16.4205 50.5568C17.6098 51.0644 18.9318 51.3182 20.3864 51.3182C22.0303 51.3182 23.4773 51.0076 24.7273 50.3864C25.9848 49.7652 26.9697 48.8939 27.6818 47.7727C28.3939 46.6439 28.7538 45.3258 28.7614 43.8182V27.7273ZM43.8608 32.7614C44.4593 33.2235 44.7964 33.8712 44.8722 34.7045H50.2585C50.2434 33.2576 49.8684 31.9848 49.1335 30.8864C48.3987 29.7879 47.3646 28.9356 46.0312 28.3295C44.7055 27.7159 43.1411 27.4091 41.3381 27.4091C39.5729 27.4091 38.0009 27.7121 36.6222 28.3182C35.2434 28.9242 34.1638 29.7689 33.3835 30.8523C32.6032 31.9356 32.2169 33.197 32.2244 34.6364C32.2169 36.4015 32.7926 37.803 33.9517 38.8409C35.1108 39.8712 36.6979 40.6174 38.7131 41.0795L41.1449 41.6477C41.9934 41.8447 42.6903 42.0606 43.2358 42.2955C43.7888 42.5227 44.1979 42.7955 44.4631 43.1136C44.7282 43.4242 44.8646 43.7992 44.8722 44.2386C44.8646 44.7083 44.7169 45.125 44.429 45.4886C44.1411 45.8523 43.7282 46.1364 43.1903 46.3409C42.66 46.5455 42.0161 46.6477 41.2585 46.6477C40.4328 46.6477 39.7055 46.5189 39.0767 46.2614C38.4555 46.0038 37.9669 45.625 37.6108 45.125C37.2547 44.625 37.054 44 37.0085 43.25H31.6222C31.6449 45.0682 32.0578 46.572 32.8608 47.7614C33.6638 48.9508 34.7888 49.8371 36.2358 50.4205C37.6828 51.0038 39.3797 51.2955 41.3267 51.2955C43.2661 51.2955 44.9214 51.0152 46.2926 50.4545C47.6714 49.8939 48.7282 49.0871 49.4631 48.0341C50.1979 46.9811 50.5691 45.7197 50.5767 44.25C50.5691 43.3182 50.41 42.4773 50.0994 41.7273C49.7888 40.9773 49.3305 40.3144 48.7244 39.7386C48.1259 39.1629 47.3835 38.6667 46.4972 38.25C45.6184 37.8333 44.6032 37.5 43.4517 37.25L41.4517 36.7955C40.9214 36.6818 40.4441 36.5492 40.0199 36.3977C39.5956 36.2462 39.232 36.072 38.929 35.875C38.6335 35.6705 38.4062 35.4356 38.2472 35.1705C38.0956 34.9053 38.0275 34.5985 38.0426 34.25C38.0502 33.8258 38.1752 33.4508 38.4176 33.125C38.66 32.7917 39.0237 32.5303 39.5085 32.3409C39.9934 32.1515 40.5994 32.0568 41.3267 32.0568C42.4252 32.0568 43.2699 32.2917 43.8608 32.7614Z"/>
</mask>
<path fill-rule="evenodd" clip-rule="evenodd" d="M9 6C6.23858 6 4 8.23858 4 11V53C4 55.7614 6.23857 58 9 58H54C56.7614 58 59 55.7614 59 53V11C59 8.23858 56.7614 6 54 6H9ZM28.7614 27.7273H23.2159V43.8182C23.2083 44.4924 23.1061 45.0568 22.9091 45.5114C22.7197 45.9659 22.4394 46.3106 22.0682 46.5455C21.697 46.7727 21.2424 46.8864 20.7045 46.8864C20.1894 46.8864 19.7462 46.7803 19.375 46.5682C19.0038 46.3561 18.7121 46.0417 18.5 45.625C18.2955 45.2008 18.1818 44.6894 18.1591 44.0909H12.5568C12.5492 45.7576 12.8939 47.125 13.5909 48.1932C14.2955 49.2614 15.2386 50.0492 16.4205 50.5568C17.6098 51.0644 18.9318 51.3182 20.3864 51.3182C22.0303 51.3182 23.4773 51.0076 24.7273 50.3864C25.9848 49.7652 26.9697 48.8939 27.6818 47.7727C28.3939 46.6439 28.7538 45.3258 28.7614 43.8182V27.7273ZM43.8608 32.7614C44.4593 33.2235 44.7964 33.8712 44.8722 34.7045H50.2585C50.2434 33.2576 49.8684 31.9848 49.1335 30.8864C48.3987 29.7879 47.3646 28.9356 46.0312 28.3295C44.7055 27.7159 43.1411 27.4091 41.3381 27.4091C39.5729 27.4091 38.0009 27.7121 36.6222 28.3182C35.2434 28.9242 34.1638 29.7689 33.3835 30.8523C32.6032 31.9356 32.2169 33.197 32.2244 34.6364C32.2169 36.4015 32.7926 37.803 33.9517 38.8409C35.1108 39.8712 36.6979 40.6174 38.7131 41.0795L41.1449 41.6477C41.9934 41.8447 42.6903 42.0606 43.2358 42.2955C43.7888 42.5227 44.1979 42.7955 44.4631 43.1136C44.7282 43.4242 44.8646 43.7992 44.8722 44.2386C44.8646 44.7083 44.7169 45.125 44.429 45.4886C44.1411 45.8523 43.7282 46.1364 43.1903 46.3409C42.66 46.5455 42.0161 46.6477 41.2585 46.6477C40.4328 46.6477 39.7055 46.5189 39.0767 46.2614C38.4555 46.0038 37.9669 45.625 37.6108 45.125C37.2547 44.625 37.054 44 37.0085 43.25H31.6222C31.6449 45.0682 32.0578 46.572 32.8608 47.7614C33.6638 48.9508 34.7888 49.8371 36.2358 50.4205C37.6828 51.0038 39.3797 51.2955 41.3267 51.2955C43.2661 51.2955 44.9214 51.0152 46.2926 50.4545C47.6714 49.8939 48.7282 49.0871 49.4631 48.0341C50.1979 46.9811 50.5691 45.7197 50.5767 44.25C50.5691 43.3182 50.41 42.4773 50.0994 41.7273C49.7888 40.9773 49.3305 40.3144 48.7244 39.7386C48.1259 39.1629 47.3835 38.6667 46.4972 38.25C45.6184 37.8333 44.6032 37.5 43.4517 37.25L41.4517 36.7955C40.9214 36.6818 40.4441 36.5492 40.0199 36.3977C39.5956 36.2462 39.232 36.072 38.929 35.875C38.6335 35.6705 38.4062 35.4356 38.2472 35.1705C38.0956 34.9053 38.0275 34.5985 38.0426 34.25C38.0502 33.8258 38.1752 33.4508 38.4176 33.125C38.66 32.7917 39.0237 32.5303 39.5085 32.3409C39.9934 32.1515 40.5994 32.0568 41.3267 32.0568C42.4252 32.0568 43.2699 32.2917 43.8608 32.7614Z" fill="#CA9400"/>
<path d="M23.2159 27.7273V25.7273H21.2159V27.7273H23.2159ZM28.7614 27.7273H30.7614V25.7273H28.7614V27.7273ZM23.2159 43.8182L25.2158 43.8406L25.2159 43.8294V43.8182H23.2159ZM22.9091 45.5114L21.074 44.7162L21.0684 44.7291L21.0629 44.7421L22.9091 45.5114ZM22.0682 46.5455L23.1125 48.2512L23.125 48.2435L23.1375 48.2356L22.0682 46.5455ZM19.375 46.5682L20.3673 44.8317L20.3673 44.8317L19.375 46.5682ZM18.5 45.625L16.6985 46.4936L16.7079 46.5131L16.7177 46.5324L18.5 45.625ZM18.1591 44.0909L20.1577 44.015L20.0846 42.0909H18.1591V44.0909ZM12.5568 44.0909V42.0909H10.5659L10.5568 44.0818L12.5568 44.0909ZM13.5909 48.1932L11.9159 49.2861L11.9214 49.2944L13.5909 48.1932ZM16.4205 50.5568L15.6312 52.3945L15.6354 52.3963L16.4205 50.5568ZM24.7273 50.3864L23.8415 48.5932L23.8372 48.5953L24.7273 50.3864ZM27.6818 47.7727L29.3701 48.845L29.3733 48.8399L27.6818 47.7727ZM28.7614 43.8182L30.7614 43.8282V43.8182H28.7614ZM44.8722 34.7045L42.8804 34.8856L43.0457 36.7045H44.8722V34.7045ZM43.8608 32.7614L42.6163 34.327L42.6273 34.3358L42.6385 34.3444L43.8608 32.7614ZM50.2585 34.7045V36.7045H52.2796L52.2584 34.6836L50.2585 34.7045ZM49.1335 30.8864L47.4712 31.9984L47.4712 31.9984L49.1335 30.8864ZM46.0312 28.3295L45.1911 30.1446L45.2036 30.1503L46.0312 28.3295ZM36.6222 28.3182L37.427 30.1491L37.427 30.1491L36.6222 28.3182ZM33.3835 30.8523L31.7607 29.6834L31.7607 29.6834L33.3835 30.8523ZM32.2244 34.6364L34.2244 34.6449L34.2245 34.6354L34.2244 34.6258L32.2244 34.6364ZM33.9517 38.8409L32.6175 40.3309L32.623 40.3357L33.9517 38.8409ZM38.7131 41.0795L39.1681 39.132L39.1601 39.1301L38.7131 41.0795ZM41.1449 41.6477L40.6898 43.5953L40.6926 43.5959L41.1449 41.6477ZM43.2358 42.2955L42.4449 44.1324L42.4602 44.139L42.4756 44.1453L43.2358 42.2955ZM44.4631 43.1136L42.9266 44.394L42.9342 44.4031L42.9419 44.4122L44.4631 43.1136ZM44.8722 44.2386L46.8719 44.2709L46.8724 44.2375L46.8719 44.2042L44.8722 44.2386ZM43.1903 46.3409L42.4794 44.4715L42.4706 44.4749L43.1903 46.3409ZM39.0767 46.2614L38.3107 48.1089L38.3186 48.1121L39.0767 46.2614ZM37.6108 45.125L35.9817 46.2851L35.9817 46.2851L37.6108 45.125ZM37.0085 43.25L39.0049 43.129L38.891 41.25H37.0085V43.25ZM31.6222 43.25V41.25H29.597L29.6223 43.275L31.6222 43.25ZM32.8608 47.7614L31.2032 48.8805L31.2032 48.8805L32.8608 47.7614ZM36.2358 50.4205L35.488 52.2754L35.488 52.2754L36.2358 50.4205ZM46.2926 50.4545L45.5393 48.6018L45.5357 48.6033L46.2926 50.4545ZM49.4631 48.0341L47.8229 46.8895L47.8229 46.8895L49.4631 48.0341ZM50.5767 44.25L52.5767 44.2603L52.5767 44.247L52.5766 44.2337L50.5767 44.25ZM50.0994 41.7273L51.9472 40.962L51.9472 40.962L50.0994 41.7273ZM48.7244 39.7386L47.3378 41.18L47.3469 41.1886L48.7244 39.7386ZM46.4972 38.25L45.6403 40.0572L45.6463 40.06L46.4972 38.25ZM43.4517 37.25L43.0085 39.2003L43.0179 39.2024L43.0274 39.2045L43.4517 37.25ZM41.4517 36.7955L41.8949 34.8452L41.8829 34.8424L41.8708 34.8398L41.4517 36.7955ZM40.0199 36.3977L39.3472 38.2812L39.3472 38.2812L40.0199 36.3977ZM38.929 35.875L37.7906 37.5194L37.8145 37.536L37.839 37.5519L38.929 35.875ZM38.2472 35.1705L36.5107 36.1627L36.5212 36.1812L36.5322 36.1994L38.2472 35.1705ZM38.0426 34.25L40.0407 34.3369L40.0418 34.3113L40.0423 34.2857L38.0426 34.25ZM38.4176 33.125L40.0221 34.319L40.0286 34.3102L40.0351 34.3013L38.4176 33.125ZM6 11C6 9.34315 7.34315 8 9 8V4C5.13401 4 2 7.13401 2 11H6ZM6 53V11H2V53H6ZM9 56C7.34314 56 6 54.6569 6 53H2C2 56.866 5.134 60 9 60V56ZM54 56H9V60H54V56ZM57 53C57 54.6569 55.6569 56 54 56V60C57.866 60 61 56.866 61 53H57ZM57 11V53H61V11H57ZM54 8C55.6569 8 57 9.34315 57 11H61C61 7.13401 57.866 4 54 4V8ZM9 8H54V4H9V8ZM23.2159 29.7273H28.7614V25.7273H23.2159V29.7273ZM25.2159 43.8182V27.7273H21.2159V43.8182H25.2159ZM24.7442 46.3066C25.0777 45.537 25.2062 44.6907 25.2158 43.8406L21.216 43.7957C21.2104 44.2942 21.1344 44.5767 21.074 44.7162L24.7442 46.3066ZM23.1375 48.2356C23.8975 47.7548 24.4276 47.0668 24.7552 46.2806L21.0629 44.7421C21.0343 44.8109 21.0116 44.841 21.0051 44.849C20.9999 44.8553 20.9995 44.8549 20.9989 44.8553L23.1375 48.2356ZM20.7045 48.8864C21.5244 48.8864 22.3605 48.7116 23.1125 48.2512L21.0239 44.8398C21.0232 44.8402 21.0194 44.8425 21.0109 44.8459C21.0024 44.8495 20.9872 44.855 20.9638 44.8609C20.9165 44.8727 20.8335 44.8864 20.7045 44.8864V48.8864ZM18.3827 48.3047C19.1125 48.7217 19.9126 48.8864 20.7045 48.8864V44.8864C20.4662 44.8864 20.3799 44.8389 20.3673 44.8317L18.3827 48.3047ZM16.7177 46.5324C17.0895 47.2626 17.6414 47.8811 18.3827 48.3047L20.3673 44.8317C20.3662 44.8311 20.3348 44.8207 20.2823 44.7176L16.7177 46.5324ZM16.1605 44.1668C16.191 44.9683 16.3467 45.764 16.6985 46.4936L20.3015 44.7564C20.2442 44.6376 20.1727 44.4105 20.1577 44.015L16.1605 44.1668ZM12.5568 46.0909H18.1591V42.0909H12.5568V46.0909ZM15.2659 47.1003C14.8393 46.4465 14.5505 45.4938 14.5568 44.1L10.5568 44.0818C10.548 46.0214 10.9486 47.8035 11.9159 49.2861L15.2659 47.1003ZM17.2097 48.7191C16.385 48.3649 15.7487 47.8322 15.2605 47.092L11.9214 49.2944C12.8423 50.6906 14.0923 51.7335 15.6312 52.3945L17.2097 48.7191ZM20.3864 49.3182C19.168 49.3182 18.1175 49.1065 17.2055 48.7173L15.6354 52.3963C17.1022 53.0222 18.6956 53.3182 20.3864 53.3182V49.3182ZM23.8372 48.5953C22.9088 49.0567 21.7761 49.3182 20.3864 49.3182V53.3182C22.2845 53.3182 24.0457 52.9584 25.6174 52.1774L23.8372 48.5953ZM25.9936 46.7005C25.489 47.4948 24.7898 48.1248 23.8415 48.5932L25.613 52.1795C27.1799 51.4055 28.4504 50.2931 29.3701 48.845L25.9936 46.7005ZM26.7614 43.8081C26.7554 44.9912 26.4777 45.933 25.9903 46.7056L29.3733 48.8399C30.3102 47.3549 30.7521 45.6603 30.7613 43.8282L26.7614 43.8081ZM26.7614 27.7273V43.8182H30.7614V27.7273H26.7614ZM46.8639 34.5235C46.7438 33.2017 46.1714 32.0187 45.0831 31.1783L42.6385 34.3444C42.7471 34.4283 42.849 34.5407 42.8804 34.8856L46.8639 34.5235ZM50.2585 32.7045H44.8722V36.7045H50.2585V32.7045ZM47.4712 31.9984C47.9694 32.7432 48.2471 33.6289 48.2586 34.7255L52.2584 34.6836C52.2396 32.8863 51.7673 31.2265 50.7959 29.7743L47.4712 31.9984ZM45.2036 30.1503C46.236 30.6195 46.9652 31.242 47.4712 31.9984L50.7959 29.7743C49.8322 28.3338 48.4931 27.2517 46.8589 26.5088L45.2036 30.1503ZM41.3381 29.4091C42.9173 29.4091 44.1829 29.6779 45.1912 30.1446L46.8713 26.5145C45.2281 25.754 43.3649 25.4091 41.3381 25.4091V29.4091ZM37.427 30.1491C38.5122 29.6721 39.8029 29.4091 41.3381 29.4091V25.4091C39.343 25.4091 37.4897 25.7522 35.8174 26.4873L37.427 30.1491ZM35.0064 32.0212C35.5523 31.2633 36.3323 30.6303 37.427 30.1491L35.8174 26.4873C34.1545 27.2182 32.7754 28.2746 31.7607 29.6834L35.0064 32.0212ZM34.2244 34.6258C34.2189 33.5746 34.4931 32.7338 35.0064 32.0212L31.7607 29.6834C30.7134 31.1374 30.2148 32.8193 30.2245 34.6469L34.2244 34.6258ZM35.2859 37.3509C34.6124 36.7479 34.2189 35.9238 34.2244 34.6449L30.2245 34.6278C30.2148 36.8793 30.9728 38.8581 32.6175 40.3309L35.2859 37.3509ZM39.1601 39.1301C37.3674 38.719 36.1187 38.0912 35.2804 37.3461L32.623 40.3357C34.1029 41.6512 36.0285 42.5158 38.266 43.0289L39.1601 39.1301ZM41.5999 39.7002L39.1681 39.132L38.258 43.0271L40.6899 43.5953L41.5999 39.7002ZM44.0267 40.4585C43.3342 40.1603 42.5133 39.9122 41.5971 39.6995L40.6926 43.5959C41.4735 43.7772 42.0465 43.9609 42.4449 44.1324L44.0267 40.4585ZM45.9995 41.8333C45.4539 41.1786 44.7257 40.7454 43.996 40.4456L42.4756 44.1453C42.852 44.3 42.9419 44.4123 42.9266 44.394L45.9995 41.8333ZM46.8719 44.2042C46.8569 43.3386 46.5745 42.5066 45.9842 41.8151L42.9419 44.4122C42.9229 44.3899 42.9001 44.3539 42.8846 44.3113C42.8698 44.2706 42.8721 44.2526 42.8725 44.2731L46.8719 44.2042ZM45.9971 46.73C46.5616 46.017 46.8573 45.174 46.8719 44.2709L42.8724 44.2064C42.8721 44.2235 42.8707 44.2328 42.8702 44.2358C42.8697 44.2386 42.8696 44.2379 42.8707 44.2351C42.8717 44.2322 42.8726 44.2306 42.8723 44.2311C42.872 44.2317 42.8689 44.2371 42.8609 44.2472L45.9971 46.73ZM43.9012 48.2103C44.6956 47.9082 45.4372 47.4372 45.9971 46.73L42.8609 44.2472C42.845 44.2673 42.7608 44.3645 42.4795 44.4715L43.9012 48.2103ZM41.2585 48.6477C42.185 48.6477 43.0877 48.5241 43.9101 48.2069L42.4706 44.4749C42.2323 44.5668 41.8472 44.6477 41.2585 44.6477V48.6477ZM38.3186 48.1121C39.2337 48.487 40.2273 48.6477 41.2585 48.6477V44.6477C40.6383 44.6477 40.1773 44.5509 39.8348 44.4106L38.3186 48.1121ZM35.9817 46.2851C36.5759 47.1196 37.3773 47.7218 38.3107 48.1088L39.8427 44.4139C39.5337 44.2857 39.3578 44.1304 39.2399 43.9649L35.9817 46.2851ZM35.0122 43.371C35.0752 44.411 35.3642 45.418 35.9817 46.2851L39.2399 43.9649C39.1453 43.832 39.0327 43.589 39.0049 43.129L35.0122 43.371ZM31.6222 45.25H37.0085V41.25H31.6222V45.25ZM34.5184 46.6422C33.9854 45.8528 33.6411 44.7567 33.622 43.225L29.6223 43.275C29.6486 45.3797 30.1302 47.2911 31.2032 48.8805L34.5184 46.6422ZM36.9836 48.5655C35.8727 48.1177 35.0788 47.4723 34.5184 46.6422L31.2032 48.8805C32.2489 50.4293 33.7049 51.5566 35.488 52.2754L36.9836 48.5655ZM41.3267 49.2955C39.5747 49.2955 38.142 49.0325 36.9836 48.5655L35.488 52.2754C37.2236 52.9751 39.1848 53.2955 41.3267 53.2955V49.2955ZM45.5357 48.6033C44.4665 49.0404 43.0828 49.2955 41.3267 49.2955V53.2955C43.4494 53.2955 45.3763 52.9899 47.0495 52.3058L45.5357 48.6033ZM47.8229 46.8895C47.3425 47.578 46.6185 48.163 45.5393 48.6018L47.0459 52.3073C48.7243 51.6249 50.1139 50.5963 51.1032 49.1786L47.8229 46.8895ZM48.5767 44.2397C48.5709 45.3642 48.2931 46.2158 47.8229 46.8895L51.1032 49.1786C52.1027 47.7463 52.5673 46.0752 52.5767 44.2603L48.5767 44.2397ZM48.2516 42.4925C48.4504 42.9725 48.571 43.5539 48.5768 44.2663L52.5766 44.2337C52.5673 43.0825 52.3697 41.9821 51.9472 40.962L48.2516 42.4925ZM47.3469 41.1886C47.7562 41.5775 48.0514 42.009 48.2516 42.4925L51.9472 40.962C51.5263 39.9456 50.9048 39.0513 50.1019 38.2886L47.3469 41.1886ZM45.6463 40.06C46.3697 40.4 46.922 40.7799 47.3379 41.18L50.111 38.2973C49.3299 37.5459 48.3973 36.9333 47.348 36.44L45.6463 40.06ZM43.0274 39.2045C44.0598 39.4286 44.925 39.718 45.6403 40.0572L47.354 36.4428C46.3117 35.9487 45.1466 35.5714 43.876 35.2955L43.0274 39.2045ZM41.0085 38.7457L43.0085 39.2003L43.8949 35.2997L41.8949 34.8452L41.0085 38.7457ZM39.3472 38.2812C39.869 38.4676 40.433 38.6226 41.0326 38.7511L41.8708 34.8398C41.4098 34.7411 41.0193 34.6309 40.6926 34.5142L39.3472 38.2812ZM37.839 37.5519C38.3 37.8515 38.8106 38.0896 39.3472 38.2812L40.6926 34.5142C40.3807 34.4029 40.164 34.2924 40.019 34.1981L37.839 37.5519ZM36.5322 36.1994C36.8594 36.7448 37.299 37.1791 37.7906 37.5194L40.0674 34.2306C39.9681 34.1618 39.9531 34.1264 39.9621 34.1415L36.5322 36.1994ZM36.0445 34.1631C36.0153 34.8339 36.1463 35.5251 36.5107 36.1627L39.9837 34.1782C40.0104 34.2249 40.0266 34.2709 40.0348 34.3076C40.0425 34.3426 40.0399 34.3552 40.0407 34.3369L36.0445 34.1631ZM36.8131 31.931C36.3095 32.6078 36.0576 33.3921 36.0429 34.2143L40.0423 34.2857C40.0425 34.2728 40.0435 34.2674 40.0434 34.2683C40.0432 34.2694 40.0422 34.2748 40.0394 34.283C40.0366 34.2913 40.0331 34.2997 40.0291 34.3073C40.0272 34.3109 40.0255 34.3137 40.0242 34.3158C40.0235 34.3169 40.023 34.3177 40.0226 34.3182C40.0223 34.3188 40.0221 34.319 40.0221 34.319L36.8131 31.931ZM38.7808 30.478C38.0329 30.7701 37.3198 31.2342 36.8001 31.9487L40.0351 34.3013C40.0003 34.3492 40.0144 34.2905 40.2362 34.2038L38.7808 30.478ZM41.3267 30.0568C40.4421 30.0568 39.5699 30.1698 38.7808 30.478L40.2362 34.2038C40.4168 34.1333 40.7567 34.0568 41.3267 34.0568V30.0568ZM45.1053 31.1957C44.031 30.3418 42.6779 30.0568 41.3267 30.0568V34.0568C42.1725 34.0568 42.5088 34.2415 42.6163 34.327L45.1053 31.1957Z" fill="#CA9400" mask="url(#path-1-inside-1_6_44)"/>
</svg>
