<svg width="64" height="64" viewBox="0 0 64 64" fill="none" xmlns="http://www.w3.org/2000/svg">
<path d="M24.72 47.64C21.2533 47.64 18.7867 47.12 17.32 46.08C15.8533 45.0667 15.12 43.32 15.12 40.84V35.48C15.12 33.9867 14.7733 32.92 14.08 32.28C13.4133 31.64 12.2667 31.32 10.64 31.32V26.92C12.2667 26.92 13.4133 26.6 14.08 25.96C14.7733 25.32 15.12 24.2533 15.12 22.76V17.36C15.12 14.9067 15.8533 13.16 17.32 12.12C18.7867 11.08 21.2533 10.56 24.72 10.56V14.88C23.2533 14.88 22.1867 15.1333 21.52 15.64C20.88 16.1467 20.56 16.9733 20.56 18.12V24.16C20.56 25.4933 20.2267 26.56 19.56 27.36C18.8933 28.16 17.9333 28.7333 16.68 29.08C17.9333 29.4533 18.8933 30.04 19.56 30.84C20.2267 31.64 20.56 32.7067 20.56 34.04V40.04C20.56 41.1867 20.88 42.0133 21.52 42.52C22.1867 43.0533 23.2533 43.32 24.72 43.32V47.64Z" fill="#00A3A3"/>
<path d="M38.3222 10.56C41.7889 10.56 44.2555 11.08 45.7222 12.12C47.1889 13.1333 47.9222 14.88 47.9222 17.36V22.72C47.9222 24.2133 48.2555 25.28 48.9222 25.92C49.6155 26.56 50.7755 26.88 52.4022 26.88V31.28C50.7755 31.28 49.6155 31.6 48.9222 32.24C48.2555 32.88 47.9222 33.9467 47.9222 35.44V40.84C47.9222 43.2933 47.1889 45.04 45.7222 46.08C44.2555 47.12 41.7889 47.64 38.3222 47.64V43.32C39.7889 43.32 40.8422 43.0667 41.4822 42.56C42.1489 42.0533 42.4822 41.2267 42.4822 40.08V34.04C42.4822 32.7067 42.8155 31.64 43.4822 30.84C44.1489 30.04 45.1089 29.4667 46.3622 29.12C45.1089 28.7467 44.1489 28.16 43.4822 27.36C42.8155 26.56 42.4822 25.4933 42.4822 24.16V18.16C42.4822 16.9867 42.1489 16.1467 41.4822 15.64C40.8422 15.1333 39.7889 14.88 38.3222 14.88V10.56Z" fill="#00A4A4"/>
<circle cx="31.5" cy="28.5" r="7.5" fill="#AE0000"/>
</svg>
