<svg width="64" height="64" viewBox="0 0 64 64" fill="none" xmlns="http://www.w3.org/2000/svg">
<mask id="path-1-inside-1_15_82" fill="white">
<path fill-rule="evenodd" clip-rule="evenodd" d="M7 12C5.34315 12 4 13.3431 4 15V48C4 49.6569 5.34314 51 7 51H57C58.6569 51 60 49.6569 60 48V15C60 13.3431 58.6569 12 57 12H7ZM31.625 40V23.5H25.75L23.3 31.925L22.375 35.4H22.325L21.425 31.9L18.95 23.5H12.825V40H16.65V32.425L16.525 27.35H16.575L20.5 40H23.975L27.9 27.35H27.95L27.825 32.425V40H31.625ZM42.5 29.5V24H47.5V29.5H51.9282L45 40L38.0718 29.5H42.5Z"/>
</mask>
<path fill-rule="evenodd" clip-rule="evenodd" d="M7 12C5.34315 12 4 13.3431 4 15V48C4 49.6569 5.34314 51 7 51H57C58.6569 51 60 49.6569 60 48V15C60 13.3431 58.6569 12 57 12H7ZM31.625 40V23.5H25.75L23.3 31.925L22.375 35.4H22.325L21.425 31.9L18.95 23.5H12.825V40H16.65V32.425L16.525 27.35H16.575L20.5 40H23.975L27.9 27.35H27.95L27.825 32.425V40H31.625ZM42.5 29.5V24H47.5V29.5H51.9282L45 40L38.0718 29.5H42.5Z" fill="black"/>
<path d="M31.625 23.5H33.625V21.5H31.625V23.5ZM31.625 40V42H33.625V40H31.625ZM25.75 23.5V21.5H24.2488L23.8296 22.9415L25.75 23.5ZM23.3 31.925L21.3796 31.3665L21.3732 31.3885L21.3673 31.4105L23.3 31.925ZM22.375 35.4V37.4H23.9123L24.3077 35.9145L22.375 35.4ZM22.325 35.4L20.388 35.8981L20.7742 37.4H22.325V35.4ZM21.425 31.9L23.362 31.4019L23.3533 31.3682L23.3435 31.3347L21.425 31.9ZM18.95 23.5L20.8685 22.9347L20.4457 21.5H18.95V23.5ZM12.825 23.5V21.5H10.825V23.5H12.825ZM12.825 40H10.825V42H12.825V40ZM16.65 40V42H18.65V40H16.65ZM16.65 32.425H18.65V32.4004L18.6494 32.3758L16.65 32.425ZM16.525 27.35V25.35H14.4751L14.5256 27.3992L16.525 27.35ZM16.575 27.35L18.4852 26.7573L18.0485 25.35H16.575V27.35ZM20.5 40L18.5898 40.5927L19.0265 42H20.5V40ZM23.975 40V42H25.4485L25.8852 40.5927L23.975 40ZM27.9 27.35V25.35H26.4265L25.9898 26.7573L27.9 27.35ZM27.95 27.35L29.9494 27.3992L29.9999 25.35H27.95V27.35ZM27.825 32.425L25.8256 32.3758L25.825 32.4004V32.425H27.825ZM27.825 40H25.825V42H27.825V40ZM42.5 24V22H40.5V24H42.5ZM42.5 29.5V31.5H44.5V29.5H42.5ZM47.5 24H49.5V22H47.5V24ZM47.5 29.5H45.5V31.5H47.5V29.5ZM51.9282 29.5L53.5976 30.6015L55.644 27.5H51.9282V29.5ZM45 40L43.3306 41.1015L45 43.6315L46.6694 41.1015L45 40ZM38.0718 29.5V27.5H34.356L36.4024 30.6015L38.0718 29.5ZM6 15C6 14.4477 6.44772 14 7 14V10C4.23858 10 2 12.2386 2 15H6ZM6 48V15H2V48H6ZM7 49C6.44772 49 6 48.5523 6 48H2C2 50.7614 4.23857 53 7 53V49ZM57 49H7V53H57V49ZM58 48C58 48.5523 57.5523 49 57 49V53C59.7614 53 62 50.7614 62 48H58ZM58 15V48H62V15H58ZM57 14C57.5523 14 58 14.4477 58 15H62C62 12.2386 59.7614 10 57 10V14ZM7 14H57V10H7V14ZM29.625 23.5V40H33.625V23.5H29.625ZM25.75 25.5H31.625V21.5H25.75V25.5ZM25.2204 32.4835L27.6704 24.0585L23.8296 22.9415L21.3796 31.3665L25.2204 32.4835ZM24.3077 35.9145L25.2327 32.4395L21.3673 31.4105L20.4423 34.8855L24.3077 35.9145ZM22.325 37.4H22.375V33.4H22.325V37.4ZM19.488 32.3981L20.388 35.8981L24.262 34.9019L23.362 31.4019L19.488 32.3981ZM17.0315 24.0653L19.5065 32.4653L23.3435 31.3347L20.8685 22.9347L17.0315 24.0653ZM12.825 25.5H18.95V21.5H12.825V25.5ZM14.825 40V23.5H10.825V40H14.825ZM16.65 38H12.825V42H16.65V38ZM14.65 32.425V40H18.65V32.425H14.65ZM14.5256 27.3992L14.6506 32.4742L18.6494 32.3758L18.5244 27.3008L14.5256 27.3992ZM16.575 25.35H16.525V29.35H16.575V25.35ZM22.4102 39.4073L18.4852 26.7573L14.6648 27.9427L18.5898 40.5927L22.4102 39.4073ZM23.975 38H20.5V42H23.975V38ZM25.9898 26.7573L22.0648 39.4073L25.8852 40.5927L29.8102 27.9427L25.9898 26.7573ZM27.95 25.35H27.9V29.35H27.95V25.35ZM29.8244 32.4742L29.9494 27.3992L25.9506 27.3008L25.8256 32.3758L29.8244 32.4742ZM29.825 40V32.425H25.825V40H29.825ZM31.625 38H27.825V42H31.625V38ZM40.5 24V29.5H44.5V24H40.5ZM47.5 22H42.5V26H47.5V22ZM49.5 29.5V24H45.5V29.5H49.5ZM51.9282 27.5H47.5V31.5H51.9282V27.5ZM46.6694 41.1015L53.5976 30.6015L50.2589 28.3985L43.3306 38.8985L46.6694 41.1015ZM36.4024 30.6015L43.3306 41.1015L46.6694 38.8985L39.7411 28.3985L36.4024 30.6015ZM42.5 27.5H38.0718V31.5H42.5V27.5Z" fill="black" mask="url(#path-1-inside-1_15_82)"/>
</svg>
