<svg width="64" height="64" viewBox="0 0 64 64" fill="none" xmlns="http://www.w3.org/2000/svg">
<path fill-rule="evenodd" clip-rule="evenodd" d="M33.5512 11.8888C32.7593 10.7037 31.0173 10.7037 30.2254 11.8888L26.6182 17.2869L20.4581 14.9109C19.041 14.3643 17.5559 15.5345 17.7557 17.0401L18.5321 22.8883L10.6594 24.2567C9.02958 24.5399 8.4287 26.5667 9.64079 27.6925L14.671 32.3647L10.6408 36.108C9.4287 37.2338 10.0296 39.2606 11.6594 39.5439L15 40.1245V40H51V40.0856L54.1171 39.5439C55.747 39.2606 56.3478 37.2338 55.1358 36.108L50.1056 31.4359L54.1358 27.6925C55.3478 26.5667 54.747 24.5399 53.1171 24.2567L47.1993 23.2281L48.0208 17.0401C48.2207 15.5345 46.7355 14.3643 45.3185 14.9109L37.5681 17.9002L33.5512 11.8888Z" fill="#FF5B02"/>
<path d="M28 33.5C28 35.433 26.433 37 24.5 37C22.567 37 21 35.433 21 33.5C21 31.567 22.567 30 24.5 30C26.433 30 28 31.567 28 33.5Z" fill="black"/>
<path d="M26 33C26 34.1046 25.1046 35 24 35C22.8954 35 22 34.1046 22 33C22 31.8954 22.8954 31 24 31C25.1046 31 26 31.8954 26 33Z" fill="white"/>
<path d="M45 33.5C45 35.433 43.433 37 41.5 37C39.567 37 38 35.433 38 33.5C38 31.567 39.567 30 41.5 30C43.433 30 45 31.567 45 33.5Z" fill="black"/>
<path d="M43 33C43 34.1046 42.1046 35 41 35C39.8954 35 39 34.1046 39 33C39 31.8954 39.8954 31 41 31C42.1046 31 43 31.8954 43 33Z" fill="white"/>
<path fill-rule="evenodd" clip-rule="evenodd" d="M29 47.9163L26.9648 47.2579C26.7808 47.1984 26.5834 47.1935 26.3967 47.2438L21.5393 48.5533C20.646 48.7941 20.5306 50.0146 21.363 50.4185L25.0695 52.2171C23.75 52.7128 22.1823 53 20.5006 53C15.8058 53 12 50.7614 12 48C12 45.2386 15.8058 43 20.5006 43C25.1478 43 28.924 45.1935 29 47.9163Z" fill="#FF5B02"/>
<path fill-rule="evenodd" clip-rule="evenodd" d="M36 47.9163L38.0352 47.2579C38.2192 47.1984 38.4166 47.1935 38.6033 47.2438L43.4607 48.5533C44.354 48.7941 44.4694 50.0146 43.637 50.4185L39.9305 52.2171C41.25 52.7128 42.8177 53 44.4994 53C49.1942 53 53 50.7614 53 48C53 45.2386 49.1942 43 44.4994 43C39.8522 43 36.076 45.1935 36 47.9163Z" fill="#FF5B02"/>
</svg>
