<svg width="64" height="64" viewBox="0 0 64 64" fill="none" xmlns="http://www.w3.org/2000/svg">
<path fill-rule="evenodd" clip-rule="evenodd" d="M9 6C6.23858 6 4 8.23858 4 11V53C4 55.7614 6.23857 58 9 58H54C56.7614 58 59 55.7614 59 53V11C59 8.23858 56.7614 6 54 6H9ZM13 27.7273V32.2955H20.0682V51H25.6136V32.2955H32.6705V27.7273H13ZM46.9858 32.7614C47.5843 33.2235 47.9214 33.8712 47.9972 34.7045H53.3835C53.3684 33.2576 52.9934 31.9848 52.2585 30.8864C51.5237 29.7879 50.4896 28.9356 49.1562 28.3295C47.8305 27.7159 46.2661 27.4091 44.4631 27.4091C42.6979 27.4091 41.1259 27.7121 39.7472 28.3182C38.3684 28.9242 37.2888 29.7689 36.5085 30.8523C35.7282 31.9356 35.3419 33.197 35.3494 34.6364C35.3419 36.4015 35.9176 37.803 37.0767 38.8409C38.2358 39.8712 39.8229 40.6174 41.8381 41.0795L44.2699 41.6477C45.1184 41.8447 45.8153 42.0606 46.3608 42.2955C46.9138 42.5227 47.3229 42.7955 47.5881 43.1136C47.8532 43.4242 47.9896 43.7992 47.9972 44.2386C47.9896 44.7083 47.8419 45.125 47.554 45.4886C47.2661 45.8523 46.8532 46.1364 46.3153 46.3409C45.785 46.5455 45.1411 46.6477 44.3835 46.6477C43.5578 46.6477 42.8305 46.5189 42.2017 46.2614C41.5805 46.0038 41.0919 45.625 40.7358 45.125C40.3797 44.625 40.179 44 40.1335 43.25H34.7472C34.7699 45.0682 35.1828 46.572 35.9858 47.7614C36.7888 48.9508 37.9138 49.8371 39.3608 50.4205C40.8078 51.0038 42.5047 51.2955 44.4517 51.2955C46.3911 51.2955 48.0464 51.0152 49.4176 50.4545C50.7964 49.8939 51.8532 49.0871 52.5881 48.0341C53.3229 46.9811 53.6941 45.7197 53.7017 44.25C53.6941 43.3182 53.535 42.4773 53.2244 41.7273C52.9138 40.9773 52.4555 40.3144 51.8494 39.7386C51.2509 39.1629 50.5085 38.6667 49.6222 38.25C48.7434 37.8333 47.7282 37.5 46.5767 37.25L44.5767 36.7955C44.0464 36.6818 43.5691 36.5492 43.1449 36.3977C42.7206 36.2462 42.357 36.072 42.054 35.875C41.7585 35.6705 41.5312 35.4356 41.3722 35.1705C41.2206 34.9053 41.1525 34.5985 41.1676 34.25C41.1752 33.8258 41.3002 33.4508 41.5426 33.125C41.785 32.7917 42.1487 32.5303 42.6335 32.3409C43.1184 32.1515 43.7244 32.0568 44.4517 32.0568C45.5502 32.0568 46.3949 32.2917 46.9858 32.7614Z" fill="#00509B"/>
</svg>
