<svg width="64" height="64" viewBox="0 0 64 64" fill="none" xmlns="http://www.w3.org/2000/svg">
<g clip-path="url(#clip0_6_39)">
<path d="M9 7H54C56.2091 7 58 8.79086 58 11V53C58 55.2091 56.2091 57 54 57H9C6.79086 57 5 55.2091 5 53V11C5 8.79086 6.79086 7 9 7Z" stroke="#00509B" stroke-width="2"/>
<path d="M13 32.2955V27.7273H32.6705V32.2955H25.6136V51H20.0682V32.2955H13ZM47.9972 34.7045C47.9214 33.8712 47.5843 33.2235 46.9858 32.7614C46.3949 32.2917 45.5502 32.0568 44.4517 32.0568C43.7244 32.0568 43.1184 32.1515 42.6335 32.3409C42.1487 32.5303 41.785 32.7917 41.5426 33.125C41.3002 33.4508 41.1752 33.8258 41.1676 34.25C41.1525 34.5985 41.2206 34.9053 41.3722 35.1705C41.5313 35.4356 41.7585 35.6705 42.054 35.875C42.357 36.072 42.7206 36.2462 43.1449 36.3977C43.5691 36.5492 44.0464 36.6818 44.5767 36.7955L46.5767 37.25C47.7282 37.5 48.7434 37.8333 49.6222 38.25C50.5085 38.6667 51.2509 39.1629 51.8494 39.7386C52.4555 40.3144 52.9138 40.9773 53.2244 41.7273C53.535 42.4773 53.6941 43.3182 53.7017 44.25C53.6941 45.7197 53.3229 46.9811 52.5881 48.0341C51.8532 49.0871 50.7964 49.8939 49.4176 50.4545C48.0464 51.0152 46.3911 51.2955 44.4517 51.2955C42.5047 51.2955 40.8078 51.0038 39.3608 50.4205C37.9138 49.8371 36.7888 48.9508 35.9858 47.7614C35.1828 46.572 34.7699 45.0682 34.7472 43.25H40.1335C40.179 44 40.3797 44.625 40.7358 45.125C41.0919 45.625 41.5805 46.0038 42.2017 46.2614C42.8305 46.5189 43.5578 46.6477 44.3835 46.6477C45.1411 46.6477 45.785 46.5455 46.3153 46.3409C46.8532 46.1364 47.2661 45.8523 47.554 45.4886C47.8419 45.125 47.9896 44.7083 47.9972 44.2386C47.9896 43.7992 47.8532 43.4242 47.5881 43.1136C47.3229 42.7955 46.9138 42.5227 46.3608 42.2955C45.8153 42.0606 45.1184 41.8447 44.2699 41.6477L41.8381 41.0795C39.8229 40.6174 38.2358 39.8712 37.0767 38.8409C35.9176 37.803 35.3419 36.4015 35.3494 34.6364C35.3419 33.197 35.7282 31.9356 36.5085 30.8523C37.2888 29.7689 38.3684 28.9242 39.7472 28.3182C41.1259 27.7121 42.6979 27.4091 44.4631 27.4091C46.2661 27.4091 47.8305 27.7159 49.1562 28.3295C50.4896 28.9356 51.5237 29.7879 52.2585 30.8864C52.9934 31.9848 53.3684 33.2576 53.3835 34.7045H47.9972Z" fill="#00509B"/>
</g>
<defs>
<clipPath id="clip0_6_39">
<rect width="64" height="64" fill="white"/>
</clipPath>
</defs>
</svg>
